<?xml version="1.0" encoding="UTF-8" standalone="no"?>
<svg width="50px" height="50px" viewBox="0 0 50 50" version="1.1" xmlns="http://www.w3.org/2000/svg" xmlns:xlink="http://www.w3.org/1999/xlink">
    <!-- Generator: Sketch 42 (36781) - http://www.bohemiancoding.com/sketch -->
    <title>logo</title>
    <desc>Created with Sketch.</desc>
    <defs></defs>
    <g id="Assets" stroke="none" stroke-width="1" fill="none" fill-rule="evenodd">
        <g id="logo">
            <g>
                <circle id="oval" fill="#000000" fill-rule="evenodd" cx="25" cy="25" r="25"></circle>
                <polygon id="line" fill="#FFFFFF" fill-rule="nonzero" points="13 37.0416306 37.0416306 13 36.3345238 12.2928932 12.2928932 36.3345238"></polygon>
                <g id="initials" stroke-width="1" fill-rule="evenodd" transform="translate(13.000000, 9.000000)" fill="#FFFFFF">
                    <path d="M23.073,17.86 L23.073,19.192 C22.4609969,18.1359947 21.3690079,17.608 19.797,17.608 C18.788995,17.608 17.9610032,17.7549985 17.313,18.049 C16.6649968,18.3430015 16.1760017,18.8079968 15.846,19.444 C15.5159984,20.0800032 15.2940006,20.7759962 15.18,21.532 C15.0659994,22.2880038 15.009,23.2539941 15.009,24.43 C15.009,25.2100039 15.0269998,25.8699973 15.063,26.41 C15.0990002,26.9500027 15.1739994,27.5019972 15.288,28.066 C15.4020006,28.6300028 15.5729989,29.0889982 15.801,29.443 C16.0290011,29.7970018 16.3229982,30.1209985 16.683,30.415 C17.0430018,30.7090015 17.4959973,30.9219993 18.042,31.054 C18.5880027,31.1860007 19.2329963,31.252 19.977,31.252 C20.7450038,31.252 21.3929974,31.1590009 21.921,30.973 C22.4490026,30.7869991 22.8569986,30.5050019 23.145,30.127 C23.4330014,29.7489981 23.6429993,29.3350023 23.775,28.885 C23.9070007,28.4349978 23.9969998,27.8860032 24.045,27.238 L22.983,27.184 C22.9469998,28.1200047 22.7100022,28.8519974 22.272,29.38 C21.8339978,29.9080026 21.0690055,30.172 19.977,30.172 C19.2929966,30.172 18.7170023,30.0790009 18.249,29.893 C17.7809977,29.7069991 17.4210013,29.4760014 17.169,29.2 C16.9169987,28.9239986 16.7250007,28.5100028 16.593,27.958 C16.4609993,27.4059972 16.3800002,26.8900024 16.35,26.41 C16.3199999,25.9299976 16.305,25.2700042 16.305,24.43 C16.305,23.637996 16.3259998,22.9810026 16.368,22.459 C16.4100002,21.9369974 16.4999993,21.4150026 16.638,20.893 C16.7760007,20.3709974 16.9679988,19.9630015 17.214,19.669 C17.4600012,19.3749985 17.7989978,19.1380009 18.231,18.958 C18.6630022,18.7779991 19.1849969,18.688 19.797,18.688 C20.9370057,18.688 21.7499976,18.9489974 22.236,19.471 C22.7220024,19.9930026 23.0009996,20.751995 23.073,21.748 L24.045,21.748 L24.045,17.86 L23.073,17.86 Z" id="c"></path>
                    <path d="M4.113,1.76 L5.553,1.76 L5.553,10.706 C5.553,11.6540047 5.43000123,12.3019983 5.184,12.65 C4.93799877,12.9980017 4.43700378,13.172 3.681,13.172 C2.92499622,13.172 2.41200135,12.9920018 2.142,12.632 C1.87199865,12.2719982 1.737,11.6300046 1.737,10.706 L0.621,10.706 C0.621,11.0900019 0.62699994,11.3959989 0.639,11.624 C0.65100006,11.8520011 0.6869997,12.1219984 0.747,12.434 C0.8070003,12.7460016 0.90299934,12.9949991 1.035,13.181 C1.16700066,13.3670009 1.34099892,13.5499991 1.557,13.73 C1.77300108,13.9100009 2.05499826,14.0419996 2.403,14.126 C2.75100174,14.2100004 3.1649976,14.252 3.645,14.252 C4.22100288,14.252 4.70699802,14.1890006 5.103,14.063 C5.49900198,13.9369994 5.81099886,13.778001 6.039,13.586 C6.26700114,13.393999 6.4409994,13.1330016 6.561,12.803 C6.6810006,12.4729983 6.75899982,12.1550015 6.795,11.849 C6.83100018,11.5429985 6.849,11.1620023 6.849,10.706 L6.849,1.76 L7.929,1.76 L7.929,0.86 L4.113,0.86 L4.113,1.76 Z" id="j"></path>
                </g>
            </g>
        </g>
    </g>
</svg>